<svg width="98" height="81" viewBox="0 0 98 81" fill="none" xmlns="http://www.w3.org/2000/svg">
<mask id="mask0_52_129" style="mask-type:luminance" maskUnits="userSpaceOnUse" x="9" y="12" width="81" height="57">
<path d="M9 12H89.488V68.3705H9V12Z" fill="white"/>
</mask>
<g mask="url(#mask0_52_129)">
<path d="M82.7999 18.7171H60.2726C58.2645 14.3216 46.4868 12.0236 34.8054 12.0236C21.9817 12.0236 9 14.7821 9 20.0559V60.2847C9 65.564 21.9817 68.3253 34.8054 68.3253C47.6263 68.3253 60.6052 65.564 60.6052 60.2847V32.8438H82.7999C86.5522 32.8438 89.6034 29.7925 89.6034 26.0402V25.5207C89.6034 21.7684 86.5522 18.7171 82.7999 18.7171ZM34.8054 14.7106C49.7594 14.7106 57.9182 18.2416 57.9182 20.0559C57.9182 21.8729 49.7594 25.4107 34.8054 25.4107C19.8472 25.4107 11.6871 21.8729 11.6871 20.0559C11.6871 18.2416 19.8472 14.7106 34.8054 14.7106ZM57.9182 60.2847C57.9182 62.1018 49.7594 65.6382 34.8054 65.6382C19.8472 65.6382 11.6871 62.1018 11.6871 60.2847V23.8452C11.8602 23.9538 12.0527 24.0569 12.2396 24.1614C12.3207 24.2053 12.3949 24.2521 12.4787 24.2961C12.8581 24.4981 13.2622 24.6919 13.6938 24.8774C13.8202 24.9311 13.9563 24.9819 14.0869 25.0355C14.3934 25.1606 14.7081 25.2815 15.0352 25.3984C15.2469 25.4726 15.4613 25.5468 15.6812 25.6197C15.9108 25.6952 16.1499 25.7667 16.3891 25.8382C21.3082 27.3281 28.0692 28.0964 34.8054 28.0964C41.5594 28.0964 48.3369 27.3226 53.2574 25.8258C53.4773 25.7598 53.6972 25.6939 53.9103 25.6252C54.1398 25.5496 54.3638 25.4712 54.5837 25.3929C54.8999 25.2802 55.2022 25.1633 55.4978 25.0438C55.6379 24.9874 55.7836 24.9324 55.9197 24.8733C56.3458 24.6905 56.7458 24.4981 57.1224 24.2988C57.2103 24.2521 57.29 24.2026 57.3753 24.1545C57.5594 24.0528 57.7477 23.9511 57.9182 23.8452V60.2847ZM86.9164 26.0402C86.9164 28.3095 85.0705 30.1567 82.7999 30.1567H60.6052V21.4042H82.7999C85.0705 21.4042 86.9164 23.2515 86.9164 25.5207V26.0402Z" fill="#3A5418"/>
</g>
</svg>
