<svg width="128" height="128" viewBox="0 0 366 330" fill="none" xmlns="http://www.w3.org/2000/svg">
  
  <path d="M274.93 218.4C274.93 232.47 253.03 238.48 253.03 238.48L123.98 243.08C123.98 243.08 90.64 232.47 90.64 218.4C90.64 204.32 103.47 193.72 120.48 193.72C125.37 193.72 129.92 194.6 133.91 196.19C137.94 186.6 148.7 180.08 162.03 180.08C170.25 180.08 177.5 182.56 182.78 186.72C188.08 182.55 195.32 180.08 203.53 180.08C216.87 180.08 227.62 186.6 231.65 196.19C235.65 194.6 240.19 193.72 245.09 193.72C262.1 193.72 274.93 204.32 274.93 218.4Z" fill="black"/>
  
  <path d="M65.63 303.55L65.62 303.59C65.52 303.87 65.46 304.15 65.46 304.44C65.46 313.55 117.99 320.95 182.78 320.95C247.58 320.95 300.1 313.56 300.1 304.44C300.1 302.21 298.93 300.38 298.93 300.38" stroke="black" stroke-width="25" stroke-miterlimit="10"/>
  
  <path d="M65.56 303.77L88.37 230.71" stroke="black" stroke-width="25" stroke-miterlimit="10"/>
  
  <path d="M300.11 304.12L277.34 231.25" stroke="black" stroke-width="25" stroke-miterlimit="10"/>
  
  <path d="M277.39 231.75C277.39 231.89 277.38 232.04 277.35 232.18C277.33 232.35 277.29 232.51 277.24 232.68C277.21 232.76 277.19 232.84 277.15 232.92C277.13 232.97 277.11 233.03 277.08 233.09C276.79 233.72 276.3 234.33 275.63 234.94C275.55 235.02 275.46 235.09 275.37 235.17C275.17 235.34 274.95 235.5 274.71 235.67C274.6 235.76 274.47 235.85 274.35 235.92C274.23 236.01 274.1 236.09 273.96 236.16C273.83 236.25 273.7 236.33 273.56 236.41C273.27 236.58 272.96 236.75 272.65 236.92C272.4 237.05 272.16 237.17 271.9 237.31C271.36 237.57 270.77 237.84 270.15 238.1C269.97 238.18 269.78 238.26 269.58 238.34C269.28 238.46 268.97 238.58 268.65 238.7C267.95 238.96 267.21 239.23 266.44 239.48C266.22 239.55 265.99 239.63 265.76 239.7C265.01 239.94 264.22 240.17 263.4 240.41C262.85 240.56 262.29 240.72 261.72 240.87C261.43 240.95 261.14 241.02 260.84 241.1C260.33 241.23 259.81 241.36 259.26 241.49C257.04 242.02 254.65 242.52 252.1 243C251.39 243.13 250.67 243.25 249.95 243.39C249.58 243.45 249.21 243.52 248.85 243.58C248.11 243.7 247.35 243.83 246.59 243.95C245.97 244.05 245.34 244.15 244.7 244.25C243.77 244.39 242.83 244.53 241.86 244.66C241.46 244.71 241.05 244.77 240.64 244.83C239.62 244.97 238.59 245.1 237.55 245.23C235.63 245.47 233.66 245.69 231.64 245.9C229.1 246.17 226.48 246.42 223.8 246.64C222.67 246.74 221.51 246.82 220.35 246.91C219.44 246.98 218.52 247.05 217.59 247.11C217.55 247.11 217.51 247.12 217.47 247.12C216.04 247.22 214.6 247.31 213.13 247.4C211.45 247.5 209.73 247.59 208 247.67C206.21 247.76 204.4 247.84 202.57 247.91C199.81 248.01 197 248.09 194.16 248.15C193.6 248.17 193.03 248.18 192.46 248.19C192.24 248.2 192.01 248.2 191.79 248.2C190.07 248.23 188.33 248.25 186.58 248.26C185.32 248.27 184.05 248.28 182.78 248.28C180.61 248.28 178.46 248.27 176.32 248.24C175.25 248.22 174.18 248.2 173.12 248.19C171 248.15 168.91 248.1 166.84 248.04C165.8 248.01 164.77 247.98 163.74 247.94H163.71C162.69 247.9 161.69 247.86 160.68 247.82C159.87 247.79 159.07 247.76 158.27 247.71C157.8 247.69 157.33 247.67 156.88 247.64C155.64 247.58 154.4 247.52 153.18 247.45C152.7 247.42 152.23 247.4 151.75 247.36C150.78 247.31 149.82 247.25 148.86 247.18C147.16 247.07 145.49 246.94 143.84 246.81C143.24 246.77 142.63 246.71 142.03 246.66C141.5 246.62 140.97 246.57 140.45 246.53C138.83 246.39 137.24 246.24 135.68 246.08C132.84 245.8 130.1 245.48 127.47 245.15C126.65 245.04 125.84 244.94 125.04 244.83C121.44 244.35 118.05 243.82 114.89 243.25C113.84 243.07 112.82 242.86 111.81 242.67C110.08 242.33 108.43 241.97 106.86 241.6C106.44 241.5 106.02 241.41 105.62 241.3C104.04 240.91 102.55 240.51 101.15 240.1C100.12 239.79 99.15 239.48 98.23 239.16C97.77 239 97.32 238.84 96.89 238.68C96.43 238.51 95.98 238.33 95.55 238.15C95.27 238.03 94.99 237.91 94.73 237.79C94.45 237.68 94.19 237.55 93.93 237.43C93.58 237.26 93.24 237.09 92.91 236.92C92.49 236.7 92.1 236.48 91.75 236.25C91.54 236.13 91.34 236 91.15 235.87C91.14 235.86 91.14 235.86 91.13 235.85C90.94 235.72 90.75 235.59 90.58 235.46C90.28 235.24 90.02 235.02 89.78 234.79C89.58 234.61 89.39 234.42 89.25 234.24C89.13 234.11 89.01 233.97 88.92 233.83C88.73 233.57 88.57 233.31 88.46 233.05C88.38 232.87 88.32 232.7 88.27 232.52C88.2 232.26 88.16 231.99 88.16 231.72C88.16 231.67 88.16 231.61 88.17 231.55C88.17 231.53 88.17 231.52 88.18 231.51C88.19 231.41 88.2 231.32 88.22 231.22V231.21C88.23 231.13 88.25 231.04 88.27 230.97C88.27 230.96 88.27 230.96 88.27 230.95C88.27 230.92 88.28 230.9 88.29 230.87C88.31 230.83 88.32 230.78 88.34 230.74C88.34 230.73 88.35 230.72 88.35 230.71C88.35 230.7 88.36 230.69 88.36 230.68C88.42 230.51 88.48 230.34 88.58 230.17C88.68 229.98 88.8 229.79 88.93 229.61C88.93 229.6 88.93 229.59 88.94 229.59C89.14 229.32 89.38 229.05 89.65 228.79C89.79 228.65 89.94 228.52 90.1 228.38C90.26 228.25 90.42 228.12 90.6 227.98C90.94 227.72 91.34 227.46 91.76 227.19C92.1 226.98 92.48 226.76 92.87 226.56C92.96 226.51 93.04 226.46 93.14 226.42C93.39 226.29 93.65 226.16 93.91 226.03C95.28 225.37 96.87 224.74 98.68 224.14C98.63 224.83 98.6 225.53 98.6 226.23C98.6 229.81 99.27 233.3 100.55 236.67C116.99 241.55 147.39 244.82 182.15 244.82C217.92 244.82 249.05 241.35 265.13 236.25C266.3 233.02 266.93 229.67 266.93 226.23C266.93 225.53 266.9 224.83 266.84 224.13C266.9 224.16 266.95 224.17 267.02 224.19C267.64 224.4 268.24 224.61 268.81 224.83C269 224.91 269.19 224.98 269.37 225.05C269.75 225.2 270.11 225.35 270.47 225.51L270.94 225.72C271.74 226.07 272.46 226.43 273.12 226.81C273.27 226.89 273.4 226.97 273.54 227.06C273.82 227.22 274.08 227.38 274.34 227.56C274.46 227.64 274.57 227.72 274.68 227.8C274.9 227.95 275.11 228.12 275.3 228.27C275.39 228.34 275.48 228.42 275.56 228.5C275.67 228.6 275.79 228.7 275.89 228.81C276 228.92 276.12 229.03 276.21 229.14C276.48 229.44 276.7 229.74 276.88 230.03C276.94 230.14 276.99 230.24 277.05 230.35C277.09 230.45 277.13 230.53 277.16 230.63C277.2 230.72 277.23 230.81 277.26 230.91C277.29 231.02 277.31 231.12 277.33 231.23V231.24C277.34 231.27 277.34 231.28 277.34 231.3C277.38 231.47 277.39 231.61 277.39 231.75Z" fill="white" stroke="black" stroke-width="25" stroke-miterlimit="10"/>
  
  <path d="M50.15 210.44C72.8765 210.44 91.3 182.968 91.3 149.08C91.3 115.192 72.8765 87.72 50.15 87.72C27.4235 87.72 9 115.192 9 149.08C9 182.968 27.4235 210.44 50.15 210.44Z" stroke="black" stroke-width="25" stroke-miterlimit="10"/>
  
  <path d="M315.42 210.44C338.146 210.44 356.57 182.968 356.57 149.08C356.57 115.192 338.146 87.72 315.42 87.72C292.693 87.72 274.27 115.192 274.27 149.08C274.27 182.968 292.693 210.44 315.42 210.44Z" stroke="black" stroke-width="25" stroke-miterlimit="10"/>
  
  <path d="M234 149.08C259.626 149.08 280.4 117.722 280.4 79.04C280.4 40.358 259.626 9 234 9C208.374 9 187.6 40.358 187.6 79.04C187.6 117.722 208.374 149.08 234 149.08Z" stroke="black" stroke-width="25" stroke-miterlimit="10"/>
  
  <path d="M131.57 149.08C157.196 149.08 177.97 117.722 177.97 79.04C177.97 40.358 157.196 9 131.57 9C105.944 9 85.17 40.358 85.17 79.04C85.17 117.722 105.944 149.08 131.57 149.08Z" stroke="black" stroke-width="25" stroke-miterlimit="10"/>
  
  <path d="M277.39 231.75C277.39 231.89 277.38 232.04 277.35 232.18C277.33 232.35 277.29 232.51 277.24 232.68C277.21 232.76 277.19 232.84 277.15 232.92C277.13 232.97 277.11 233.03 277.08 233.09C276.79 233.72 276.3 234.33 275.63 234.94C275.55 235.02 275.46 235.09 275.37 235.17C275.17 235.34 274.95 235.5 274.71 235.67C274.6 235.76 274.47 235.85 274.35 235.92C274.23 236.01 274.1 236.09 273.96 236.16C273.83 236.25 273.7 236.33 273.56 236.41C273.27 236.58 272.96 236.75 272.65 236.92C272.4 237.05 272.16 237.17 271.9 237.31C271.36 237.57 270.77 237.84 270.15 238.1C269.97 238.18 269.78 238.26 269.58 238.34C269.28 238.46 268.97 238.58 268.65 238.7C267.95 238.96 267.21 239.23 266.44 239.48C266.22 239.55 265.99 239.63 265.76 239.7C265.01 239.94 264.22 240.17 263.4 240.41C262.85 240.56 262.29 240.72 261.72 240.87C261.43 240.95 261.14 241.02 260.84 241.1C260.33 241.23 259.81 241.36 259.26 241.49C257.04 242.02 254.65 242.52 252.1 243C251.39 243.13 250.67 243.25 249.95 243.39C249.58 243.45 249.21 243.52 248.85 243.58C248.11 243.7 247.35 243.83 246.59 243.95C245.97 244.05 245.34 244.15 244.7 244.25C243.77 244.39 242.83 244.53 241.86 244.66C241.46 244.71 241.05 244.77 240.64 244.83C239.62 244.97 238.59 245.1 237.55 245.23C235.63 245.47 233.66 245.69 231.64 245.9C229.1 246.17 226.48 246.42 223.8 246.64C222.67 246.74 221.51 246.82 220.35 246.91C219.44 246.98 218.52 247.05 217.59 247.11C217.55 247.11 217.51 247.12 217.47 247.12C216.04 247.22 214.6 247.31 213.13 247.4C211.45 247.5 209.73 247.59 208 247.67C206.21 247.76 204.4 247.84 202.57 247.91C199.81 248.01 197 248.09 194.16 248.15C193.6 248.17 193.03 248.18 192.46 248.19C192.24 248.2 192.01 248.2 191.79 248.2C190.07 248.23 188.33 248.25 186.58 248.26C185.32 248.27 184.05 248.28 182.78 248.28C180.61 248.28 178.46 248.27 176.32 248.24C175.25 248.22 174.18 248.2 173.12 248.19C171 248.15 168.91 248.1 166.84 248.04C165.8 248.01 164.77 247.98 163.74 247.94H163.71C162.69 247.9 161.69 247.86 160.68 247.82C159.87 247.79 159.07 247.76 158.27 247.71C157.8 247.69 157.33 247.67 156.88 247.64C155.64 247.58 154.4 247.52 153.18 247.45C152.7 247.42 152.23 247.4 151.75 247.36C150.78 247.31 149.82 247.25 148.86 247.18C147.16 247.07 145.49 246.94 143.84 246.81C143.24 246.77 142.63 246.71 142.03 246.66C141.5 246.62 140.97 246.57 140.45 246.53C138.83 246.39 137.24 246.24 135.68 246.08C132.84 245.8 130.1 245.48 127.47 245.15C126.65 245.04 125.84 244.94 125.04 244.83C121.44 244.35 118.05 243.82 114.89 243.25C113.84 243.07 112.82 242.86 111.81 242.67C110.08 242.33 108.43 241.97 106.86 241.6C106.44 241.5 106.02 241.41 105.62 241.3C104.04 240.91 102.55 240.51 101.15 240.1C100.12 239.79 99.15 239.48 98.23 239.16C97.77 239 97.32 238.84 96.89 238.68C96.43 238.51 95.98 238.33 95.55 238.15C95.27 238.03 94.99 237.91 94.73 237.79C94.45 237.68 94.19 237.55 93.93 237.43C93.58 237.26 93.24 237.09 92.91 236.92C92.49 236.7 92.1 236.48 91.75 236.25C91.54 236.13 91.34 236 91.15 235.87C91.14 235.86 91.14 235.86 91.13 235.85C90.94 235.72 90.75 235.59 90.58 235.46C90.28 235.24 90.02 235.02 89.78 234.79C89.58 234.61 89.39 234.42 89.25 234.24C89.13 234.11 89.01 233.97 88.92 233.83C88.73 233.57 88.57 233.31 88.46 233.05C88.38 232.87 88.32 232.7 88.27 232.52C88.19 232.26 88.16 231.99 88.16 231.72C88.16 231.67 88.18 231.61 88.18 231.55C88.18 231.53 88.18 231.52 88.19 231.51C88.2 231.41 88.21 231.32 88.23 231.22V231.21C88.24 231.16 88.24 231.11 88.25 231.07V231.06C88.26 231.02 88.27 230.98 88.29 230.95C88.29 230.92 88.3 230.9 88.31 230.87C88.33 230.83 88.34 230.78 88.36 230.74C88.36 230.73 88.37 230.72 88.37 230.71C88.37 230.7 88.38 230.69 88.38 230.68C88.44 230.51 88.5 230.34 88.6 230.17C88.7 229.98 88.82 229.79 88.95 229.61C88.95 229.6 88.95 229.59 88.96 229.59C89.16 229.32 89.4 229.05 89.67 228.79C89.81 228.65 89.96 228.52 90.12 228.38C90.28 228.25 90.44 228.12 90.62 227.98C90.96 227.72 91.36 227.46 91.78 227.19C92.12 226.98 92.5 226.76 92.89 226.56C92.98 226.51 93.06 226.46 93.16 226.42C93.41 226.29 93.67 226.16 93.93 226.03C95.3 225.37 96.89 224.74 98.7 224.14C98.65 224.83 98.62 225.53 98.62 226.23C98.62 229.81 99.29 233.3 100.57 236.67C117.01 241.55 147.41 244.82 182.17 244.82C217.94 244.82 249.07 241.35 265.15 236.25C266.32 233.02 266.95 229.67 266.95 226.23C266.95 225.53 266.92 224.83 266.86 224.13C266.92 224.16 266.97 224.17 267.04 224.19C267.66 224.4 268.26 224.61 268.83 224.83C269.02 224.91 269.21 224.98 269.39 225.05C269.77 225.2 270.13 225.35 270.49 225.51L270.96 225.72C271.76 226.07 272.48 226.43 273.14 226.81C273.29 226.89 273.42 226.97 273.56 227.06C273.84 227.22 274.1 227.38 274.36 227.56C274.48 227.64 274.59 227.72 274.7 227.8C274.92 227.95 275.13 228.12 275.32 228.27C275.41 228.34 275.5 228.42 275.58 228.5C275.69 228.6 275.81 228.7 275.91 228.81C276.02 228.92 276.14 229.03 276.23 229.14C276.5 229.44 276.72 229.74 276.9 230.03C276.96 230.14 277.01 230.24 277.07 230.35C277.11 230.45 277.15 230.53 277.18 230.63C277.22 230.72 277.25 230.81 277.28 230.91C277.31 231.02 277.33 231.12 277.35 231.23V231.24C277.36 231.27 277.36 231.28 277.36 231.3C277.38 231.47 277.39 231.61 277.39 231.75Z" fill="white" stroke="black" stroke-width="25" stroke-miterlimit="10"/>
</svg>