<svg xmlns="http://www.w3.org/2000/svg" xmlns:xlink="http://www.w3.org/1999/xlink" width="4000" zoomAndPan="magnify" viewBox="0 0 3000 3374.999861" height="4500" preserveAspectRatio="xMidYMid meet" version="1.0"><rect x="-300" width="3600" fill="#ffffff" y="-337.499986" height="4049.999833" fill-opacity="1"/><rect x="-300" width="3600" fill="#ffffff" y="-337.499986" height="4049.999833" fill-opacity="1"/><path fill="#000000" d="M 397.671875 2212.457031 C 381.0625 2208.304688 353.558594 2207.265625 342.140625 2192.214844 C 333.316406 2180.796875 323.457031 2173.53125 312.558594 2169.898438 C 305.292969 2167.824219 301.140625 2160.039062 303.214844 2152.773438 C 304.253906 2150.175781 305.808594 2147.582031 307.886719 2145.507812 C 316.191406 2139.277344 323.457031 2132.53125 330.203125 2124.746094 C 352 2100.355469 385.214844 2087.378906 414.277344 2079.074219 C 423.101562 2076.480469 439.191406 2075.960938 462.542969 2076.480469 C 509.773438 2078.558594 557 2067.140625 603.707031 2043.265625 C 626.542969 2031.328125 660.796875 2009.011719 689.859375 2001.746094 C 768.226562 1982.023438 860.089844 1972.164062 934.824219 1933.757812 C 949.355469 1925.976562 957.140625 1915.59375 958.175781 1901.582031 C 958.695312 1894.316406 955.582031 1882.898438 948.835938 1867.328125 C 921.847656 1806.089844 899.53125 1768.203125 911.46875 1711.632812 C 911.988281 1708.519531 910.949219 1706.441406 907.835938 1705.925781 C 881.886719 1700.214844 861.644531 1686.203125 847.113281 1663.886719 C 827.910156 1635.339844 863.203125 1601.609375 872.027344 1575.65625 C 876.175781 1563.203125 881.367188 1540.886719 889.671875 1531.023438 C 895.378906 1524.796875 901.089844 1518.050781 906.277344 1511.824219 C 907.835938 1509.746094 907.316406 1507.152344 905.757812 1505.59375 C 905.242188 1505.074219 904.722656 1505.074219 904.203125 1505.074219 C 880.847656 1496.773438 864.242188 1480.683594 854.378906 1456.292969 C 852.304688 1451.101562 847.113281 1447.46875 841.40625 1446.429688 C 836.734375 1445.910156 825.835938 1444.355469 808.707031 1441.757812 C 781.722656 1438.125 764.59375 1428.265625 729.824219 1414.253906 C 727.746094 1413.734375 726.191406 1412.175781 725.152344 1410.621094 C 717.886719 1401.796875 710.621094 1394.011719 702.835938 1387.785156 C 691.417969 1378.960938 684.152344 1370.65625 680.519531 1363.910156 C 675.328125 1353.53125 669.101562 1344.707031 662.355469 1337.441406 C 644.707031 1318.757812 648.34375 1285.023438 651.457031 1261.671875 C 651.976562 1259.074219 651.457031 1256.480469 650.417969 1254.40625 C 648.34375 1249.734375 645.746094 1245.582031 642.632812 1240.910156 C 628.101562 1221.707031 632.253906 1201.46875 654.570312 1189.53125 C 669.621094 1181.746094 690.898438 1179.152344 708.027344 1168.773438 C 725.152344 1158.390625 747.988281 1145.9375 776.011719 1131.40625 C 796.773438 1120.507812 806.113281 1053.558594 806.632812 1035.390625 C 806.632812 1032.796875 807.671875 1030.722656 809.226562 1029.164062 C 817.011719 1021.898438 827.390625 1019.304688 835.695312 1008.925781 C 863.203125 974.671875 879.292969 955.46875 884.480469 950.277344 C 908.875 928.480469 938.976562 913.949219 974.265625 905.644531 C 1004.367188 898.898438 1040.695312 893.707031 1083.253906 890.59375 C 1120.621094 888 1151.757812 896.824219 1176.152344 917.582031 C 1187.050781 926.925781 1200.542969 948.203125 1218.191406 958.0625 C 1259.707031 980.898438 1294.480469 1004.773438 1323.542969 1042.65625 C 1359.875 1090.40625 1390.492188 1143.339844 1414.367188 1202.507812 C 1418 1210.808594 1421.113281 1223.265625 1424.746094 1239.875 C 1425.785156 1244.023438 1428.378906 1247.140625 1432.53125 1248.175781 C 1489.101562 1265.824219 1521.796875 1298 1572.660156 1343.152344 C 1580.960938 1350.417969 1590.824219 1355.089844 1601.203125 1357.164062 C 1659.847656 1368.0625 1739.773438 1382.074219 1805.683594 1401.796875 C 1847.722656 1414.253906 1882.492188 1427.226562 1911.039062 1439.683594 C 1956.191406 1459.925781 1975.910156 1469.785156 2016.910156 1477.570312 C 2083.339844 1490.542969 2149.773438 1513.898438 2214.644531 1547.632812 C 2344.390625 1614.0625 2463.242188 1708 2526.039062 1843.972656 C 2540.050781 1874.074219 2551.46875 1912.480469 2559.773438 1960.226562 C 2568.074219 2006.9375 2574.304688 2062.988281 2577.9375 2128.378906 C 2578.457031 2133.050781 2581.050781 2137.203125 2585.203125 2139.277344 C 2622.570312 2157.960938 2651.632812 2183.390625 2671.875 2215.050781 C 2690.558594 2243.59375 2698.859375 2301.722656 2667.722656 2326.632812 C 2653.707031 2338.050781 2638.660156 2345.316406 2622.570312 2348.429688 C 2515.140625 2371.265625 2414.976562 2359.847656 2293.53125 2355.175781 C 2208.9375 2351.542969 2125.378906 2366.59375 2056.355469 2416.417969 C 2048.570312 2422.125 2037.671875 2431.988281 2024.175781 2446 C 2007.050781 2464.164062 1996.671875 2474.542969 1993.558594 2477.65625 C 1984.214844 2487 1974.355469 2487 1965.011719 2476.621094 C 1957.746094 2468.835938 1953.074219 2460.53125 1951 2452.226562 C 1938.542969 2393.582031 1966.050781 2355.695312 2003.9375 2316.253906 C 2004.976562 2315.214844 2004.976562 2313.65625 2003.9375 2313.140625 C 2003.417969 2312.621094 2003.417969 2312.621094 2002.898438 2312.621094 C 1995.113281 2310.542969 1985.253906 2307.429688 1973.835938 2302.238281 C 1908.441406 2273.175781 1873.152344 2256.050781 1811.390625 2255.53125 C 1783.367188 2255.53125 1747.039062 2255.53125 1701.886719 2255.53125 C 1608.988281 2256.050781 1517.644531 2245.152344 1427.339844 2223.355469 C 1423.707031 2222.316406 1420.59375 2222.316406 1418 2222.835938 C 1414.886719 2223.355469 1411.773438 2223.875 1408.65625 2224.910156 C 1406.0625 2225.429688 1383.746094 2234.253906 1340.671875 2251.898438 C 1320.429688 2260.203125 1290.847656 2262.796875 1252.960938 2260.722656 C 1132.558594 2252.9375 976.339844 2242.039062 783.277344 2229.0625 C 773.9375 2228.542969 764.59375 2230.621094 754.214844 2235.289062 C 752.140625 2236.328125 749.542969 2236.328125 747.46875 2234.773438 C 743.835938 2232.175781 740.203125 2230.101562 737.609375 2229.582031 C 735.011719 2229.0625 732.417969 2229.582031 730.859375 2232.175781 C 716.847656 2252.9375 698.683594 2262.796875 676.367188 2261.238281 C 638.480469 2258.125 613.570312 2259.164062 602.152344 2263.316406 C 574.644531 2273.695312 554.925781 2279.40625 544.023438 2280.441406 C 537.796875 2280.960938 526.378906 2279.40625 509.773438 2276.289062 C 486.9375 2271.621094 464.621094 2270.0625 445.417969 2267.46875 C 430.367188 2265.910156 420.507812 2262.277344 414.796875 2257.605469 C 407.53125 2250.859375 397.152344 2243.074219 384.175781 2234.253906 C 382.101562 2232.695312 381.582031 2230.101562 383.140625 2228.542969 C 383.65625 2228.023438 384.175781 2227.507812 384.695312 2226.988281 C 389.367188 2224.910156 393.519531 2221.796875 396.632812 2217.125 C 401.824219 2215.050781 401.304688 2212.972656 397.671875 2212.457031 Z M 397.671875 2212.457031 " fill-opacity="1" fill-rule="nonzero"/></svg>