<svg xmlns="http://www.w3.org/2000/svg" xmlns:xlink="http://www.w3.org/1999/xlink" width="4000" zoomAndPan="magnify" viewBox="0 0 3000 3374.999861" height="4500" preserveAspectRatio="xMidYMid meet" version="1.0"><defs><clipPath id="38cfbca227"><path d="M 470 1006.171875 L 2671 1006.171875 L 2671 2450 L 470 2450 Z M 470 1006.171875 " clip-rule="nonzero"/></clipPath></defs><rect x="-300" width="3600" fill="#ffffff" y="-337.499986" height="4049.999833" fill-opacity="1"/><rect x="-300" width="3600" fill="#ffffff" y="-337.499986" height="4049.999833" fill-opacity="1"/><g clip-path="url(#38cfbca227)"><path fill="#000000" d="M 2523.324219 2373.226562 C 2512.851562 2359.0625 2504.042969 2343.722656 2494.617188 2328.753906 C 2489.6875 2320.996094 2485.070312 2313.046875 2480.757812 2304.917969 C 2474.71875 2293.523438 2470.035156 2281.265625 2463.015625 2270.425781 C 2448.597656 2248.1875 2433.503906 2226.382812 2417.796875 2204.949219 C 2402.886719 2184.746094 2387.730469 2164.480469 2370.976562 2145.753906 C 2360.132812 2133.742188 2346.578125 2123.949219 2333.582031 2114.09375 C 2317.253906 2101.714844 2301.421875 2087.976562 2283.371094 2078.738281 C 2244.191406 2058.535156 2203.714844 2041.042969 2163.980469 2021.886719 C 2145.5 2012.953125 2127.632812 2002.667969 2109.335938 1993.429688 C 2094.058594 1985.730469 2078.535156 1978.707031 2063.253906 1970.945312 C 2056.480469 1967.558594 2050.257812 1963.125 2043.726562 1959.179688 C 2042.863281 1960.042969 2042 1960.722656 2041.140625 1961.523438 C 2048.101562 1983.386719 2052.105469 2006.855469 2062.640625 2026.9375 C 2092.332031 2083.359375 2133.917969 2131.09375 2180.984375 2173.84375 C 2192.257812 2184.128906 2195.890625 2194.539062 2190.777344 2208.519531 C 2182.152344 2232.234375 2173.53125 2255.886719 2165.027344 2279.480469 C 2159.730469 2294.140625 2156.402344 2309.785156 2149.011719 2323.273438 C 2132.128906 2354.011719 2122.890625 2386.777344 2118.640625 2421.273438 C 2117.40625 2430.820312 2112.476562 2435.132812 2103.421875 2436.734375 C 2099.355469 2437.472656 2095.660156 2440.367188 2091.777344 2442.277344 C 2087.035156 2444.617188 2082.292969 2449.113281 2077.609375 2449.113281 C 2045.144531 2448.746094 2012.675781 2447.882812 1980.273438 2446.097656 C 1973.742188 2445.726562 1949.222656 2429.402344 1985.570312 2399.589844 C 1994.75 2392.078125 2003.191406 2385.175781 2016.375 2384.992188 C 2034.054688 2384.746094 2047.609375 2376 2055.0625 2359.246094 C 2063.253906 2340.828125 2073.113281 2322.964844 2079.027344 2303.871094 C 2082.96875 2291.121094 2083.523438 2276.277344 2081.613281 2262.972656 C 2074.46875 2213.941406 2049.640625 2174.828125 2009.78125 2145.753906 C 1971.894531 2118.097656 1935.917969 2088.347656 1904.003906 2053.855469 C 1882.566406 2030.632812 1862.296875 2005.996094 1838.582031 1985.421875 C 1814.800781 1964.664062 1796.195312 1942.304688 1784.921875 1912.367188 C 1774.878906 1885.757812 1764.53125 1859.890625 1764.34375 1831.183594 C 1764.285156 1818.867188 1764.34375 1806.484375 1764.34375 1795.089844 C 1735.269531 1798.601562 1708.46875 1796.570312 1679.453125 1805.808594 C 1648.402344 1815.664062 1619.203125 1830.570312 1589.632812 1843.9375 C 1554.148438 1860.074219 1520.324219 1881.941406 1488.476562 1904.300781 C 1460.320312 1923.949219 1431.429688 1935.34375 1397.300781 1943.167969 C 1370.871094 1949.324219 1340.191406 1946.800781 1312.40625 1946.554688 C 1287.457031 1946.308594 1260.351562 1943.105469 1236.816406 1934.789062 C 1203.488281 1922.902344 1173.546875 1906.761719 1141.757812 1892.351562 C 1133.136719 1888.40625 1125.125 1882.988281 1114.34375 1876.703125 C 1108 1900.417969 1101.285156 1922.902344 1096.292969 1945.753906 C 1093.277344 1959.796875 1088.902344 1972.734375 1074.300781 1976.675781 C 1065.984375 1978.953125 1055.941406 1977.660156 1047.316406 1975.257812 C 1024.460938 1969.097656 1001.359375 1969.097656 979.550781 1974.640625 C 934.519531 1986.222656 890.039062 2000.140625 845.804688 2014.433594 C 824.550781 2021.269531 801.019531 2018.066406 781.675781 2035.804688 C 767.566406 2048.679688 706.886719 2097.523438 696.164062 2106.085938 C 690.683594 2110.460938 684.335938 2115.203125 681.503906 2121.238281 C 673.804688 2137.5 661.113281 2146.492188 644.847656 2151.914062 C 641.089844 2153.144531 637.765625 2155.671875 634.066406 2157.210938 C 627.96875 2159.613281 621.929688 2162.199219 615.585938 2163.863281 C 608.253906 2165.773438 600.675781 2166.882812 593.160156 2168.113281 C 592.050781 2168.359375 571.597656 2170.148438 576.160156 2141.136719 C 580.410156 2114.277344 590.882812 2088.65625 612.628906 2074.859375 C 642.261719 2055.886719 661.726562 2027.675781 687.601562 2005.746094 C 690.128906 2003.652344 767.320312 1952.527344 768.675781 1949.019531 C 766.765625 1943.96875 689.082031 1993.550781 687.726562 1992.566406 C 677.316406 1999.28125 666.164062 2005.191406 656.675781 2013.015625 C 638.257812 2028.292969 619.46875 2043.445312 603.574219 2061.121094 C 596.734375 2068.699219 591.003906 2076.027344 581.210938 2076.890625 C 567.472656 2078.121094 554.105469 2081.941406 541.105469 2083.542969 C 522.316406 2085.882812 502.355469 2078.738281 482.886719 2075.78125 C 479.066406 2075.167969 466.128906 2056.996094 484.796875 2041.105469 C 508.636719 2020.777344 527.921875 1994.539062 560.078125 1985.789062 C 562.480469 1985.175781 564.453125 1983.265625 566.671875 1982.035156 C 606.035156 1961.460938 637.515625 1930.785156 670.105469 1901.527344 C 687.355469 1886.066406 706.144531 1873.75 729.25 1869.621094 C 773.109375 1861.796875 817.160156 1854.714844 861.085938 1846.890625 C 892.871094 1841.226562 922.136719 1829.214844 948.441406 1811.78125 C 948.378906 1797.371094 935.503906 1792.503906 929.035156 1784.925781 C 918.933594 1773.222656 913.878906 1761.210938 910.058594 1747.167969 C 905.441406 1730.476562 912.277344 1715.078125 913.820312 1698.9375 C 915.113281 1685.820312 916.777344 1672.390625 915.234375 1659.457031 C 913.511719 1646.089844 907.535156 1516.183594 877.039062 1473.929688 C 860.898438 1451.570312 829.726562 1422.4375 808.78125 1404.019531 C 789.746094 1387.449219 796.519531 1361.269531 777.671875 1345.5625 C 769.96875 1339.28125 760.789062 1334.539062 751.671875 1330.164062 C 737.625 1323.574219 723.582031 1321.664062 707.996094 1327.761719 C 699.675781 1331.027344 689.203125 1329.179688 679.777344 1329.117188 C 667.828125 1329.117188 655.566406 1326.839844 643.984375 1328.6875 C 625.8125 1331.519531 608.933594 1331.953125 593.222656 1320.804688 C 588.789062 1317.722656 583.796875 1314.519531 578.621094 1313.597656 C 552.132812 1308.914062 531.308594 1293.269531 516.894531 1273.003906 C 499.152344 1248.058594 485.722656 1219.722656 472.414062 1191.945312 C 465.699219 1177.902344 473.460938 1166.875 491.511719 1161.453125 C 530.140625 1150.058594 568.828125 1139.035156 607.699219 1128.625 C 629.078125 1122.957031 647.25 1112.300781 662.53125 1096.777344 C 666.71875 1092.527344 671.894531 1085.324219 670.90625 1080.703125 C 668.011719 1067.152344 676.761719 1063.148438 685.136719 1057.664062 C 690.375 1054.214844 695.117188 1050.027344 700.171875 1046.210938 C 719.699219 1031.425781 739.660156 1016.890625 764.300781 1012.207031 C 805.640625 1004.386719 847.285156 1004.570312 888.804688 1010.484375 C 904.945312 1012.761719 922.320312 1013.007812 936.613281 1019.539062 C 965.074219 1032.65625 987.375 1054.957031 1007.273438 1078.792969 C 1025.015625 1100.105469 1041.34375 1122.402344 1058.714844 1143.960938 C 1075.347656 1164.597656 1097.402344 1182.953125 1111.511719 1205.25 C 1122.351562 1222.371094 1126.359375 1235.675781 1144.40625 1247.566406 C 1169.667969 1264.320312 1201.886719 1274.175781 1229.917969 1285.199219 C 1249.816406 1293.023438 1268.851562 1304.046875 1289.367188 1309.222656 C 1318.257812 1316.492188 1345.734375 1326.285156 1371.054688 1341.683594 C 1411.652344 1366.320312 1456.441406 1378.023438 1503.015625 1380.734375 C 1576.203125 1384.984375 1649.574219 1387.078125 1722.945312 1388.742188 C 1799.460938 1390.527344 1875.359375 1397.058594 1949.46875 1416.398438 C 2064.917969 1446.457031 2167.675781 1440.359375 2211.109375 1458.285156 C 2256.511719 1477.070312 2301.050781 1497.765625 2346.332031 1516.800781 C 2373.007812 1528.074219 2399.746094 1540.328125 2427.652344 1547.351562 C 2490.304688 1563.183594 2554.375 1560.535156 2618.382812 1557.207031 C 2638.835938 1556.097656 2670.992188 1578.890625 2670.007812 1580.121094 C 2640.867188 1618.1875 2597.5 1631.308594 2554.3125 1640.238281 C 2522.710938 1646.644531 2488.765625 1646.398438 2456.484375 1643.195312 C 2419.582031 1639.5 2382.433594 1632.230469 2347.070312 1621.207031 C 2295.507812 1605.066406 2251.027344 1575.808594 2197.988281 1566.632812 C 2181.042969 1563.738281 2155.109375 1557.269531 2138.84375 1562.996094 C 2142.355469 1571.621094 2147.960938 1581.414062 2154.984375 1587.757812 C 2185.542969 1615.785156 2198.664062 1650.523438 2199.648438 1691.363281 C 2200.140625 1712.183594 2201.4375 1733.433594 2206.304688 1753.511719 C 2211.96875 1777.042969 2221.582031 1799.769531 2230.082031 1822.5 C 2235.074219 1835.867188 2241.726562 1848.492188 2247.023438 1861.738281 C 2259.59375 1892.964844 2271.914062 1924.070312 2293.167969 1950.988281 C 2319.964844 1984.804688 2355.757812 2004.390625 2395.738281 2016.527344 C 2416.441406 2022.808594 2425.0625 2028.476562 2429.808594 2049.851562 C 2430.976562 2055.207031 2432.085938 2060.628906 2433.6875 2065.804688 C 2448.535156 2112.800781 2476.9375 2152.097656 2504.964844 2191.582031 C 2515.378906 2206.117188 2528.746094 2218.5625 2540.390625 2232.296875 C 2544.886719 2237.53125 2548.769531 2243.324219 2552.464844 2249.175781 C 2560.535156 2262.046875 2568.421875 2275.042969 2576.058594 2288.164062 C 2582.652344 2299.496094 2584.128906 2311.015625 2576.242188 2322.71875 C 2574.765625 2324.875 2574.765625 2328.261719 2574.457031 2331.097656 C 2573.78125 2337.132812 2574.027344 2343.292969 2572.546875 2349.207031 C 2570.824219 2356.042969 2564.167969 2368.363281 2563.675781 2367.992188 C 2560.105469 2372.488281 2537.1875 2392.074219 2523.324219 2373.226562 Z M 2523.324219 2373.226562 " fill-opacity="1" fill-rule="evenodd"/></g></svg>