<svg xmlns="http://www.w3.org/2000/svg" xmlns:xlink="http://www.w3.org/1999/xlink" width="4000" zoomAndPan="magnify" viewBox="0 0 3000 3374.999861" height="4500" preserveAspectRatio="xMidYMid meet" version="1.0"><defs><clipPath id="1265dedd13"><path d="M 615 750 L 2392.582031 750 L 2392.582031 2624 L 615 2624 Z M 615 750 " clip-rule="nonzero"/></clipPath></defs><rect x="-300" width="3600" fill="#ffffff" y="-337.499986" height="4049.999833" fill-opacity="1"/><rect x="-300" width="3600" fill="#ffffff" y="-337.499986" height="4049.999833" fill-opacity="1"/><g clip-path="url(#1265dedd13)"><path fill="#000000" d="M 2358.617188 2558.570312 C 2278.902344 2525.59375 2195.984375 2505.304688 2110.5 2494.871094 C 2071.769531 2490.152344 2036.128906 2477.046875 2005.207031 2452.195312 C 1989.535156 2439.613281 1979.683594 2424.515625 1979.683594 2403.753906 C 1979.683594 2375.757812 1979.578125 2347.710938 1979.417969 2319.664062 C 1979 2245.898438 1969.25 2174.074219 1941.367188 2104.871094 C 1885.863281 1966.777344 1808.976562 1841.113281 1722.8125 1720.582031 C 1683.242188 1665.167969 1639.371094 1613.476562 1585.648438 1571.21875 C 1555.144531 1547.261719 1528.835938 1519.738281 1504.621094 1489.75 C 1491.308594 1473.234375 1477.628906 1456.773438 1462.535156 1441.9375 C 1446.183594 1425.894531 1435.125 1407.597656 1428.78125 1385.785156 C 1420.394531 1356.847656 1407.242188 1330.265625 1388.058594 1306.886719 C 1372.910156 1288.429688 1331.820312 1210.628906 1310.699219 1164.441406 C 1301.316406 1143.941406 1292.511719 1123.128906 1284.230469 1102.160156 C 1282.816406 1098.488281 1283.390625 1091.882812 1285.800781 1089.105469 C 1308.445312 1063.414062 1331.871094 1038.40625 1354.722656 1012.929688 C 1367.828125 998.300781 1370.867188 981.261719 1361.277344 964.066406 C 1354.828125 952.324219 1346.703125 941.050781 1337.324219 931.457031 C 1311.222656 904.980469 1285.855469 878.035156 1267.617188 845.269531 C 1258.707031 829.226562 1244.292969 821.046875 1227.730469 814.757812 C 1200.371094 804.375 1173.328125 793 1146.230469 781.832031 C 1127.570312 774.125 1109.648438 763.167969 1090.253906 758.660156 C 1047.589844 748.644531 1003.144531 748.4375 961.113281 758.03125 C 913.050781 768.988281 866.929688 788.175781 820.070312 804.324219 C 817.03125 805.371094 814.882812 810.5625 813.414062 814.230469 C 808.226562 827.023438 803.5625 840.027344 798.6875 852.921875 C 794.597656 863.828125 790.984375 874.996094 786.003906 885.480469 C 783.4375 890.878906 779.191406 897.644531 774.160156 899.371094 C 750.785156 907.394531 727.09375 914.785156 703.089844 920.710938 C 682.542969 925.796875 661.210938 927.578125 640.71875 932.664062 C 617.65625 938.378906 609.953125 958.089844 620.382812 978.902344 C 623.527344 985.195312 625.363281 992.324219 626.621094 999.246094 C 631.335938 1025.457031 634.273438 1052.039062 640.351562 1077.886719 C 646.746094 1105.042969 661.996094 1126.066406 689.882812 1136.078125 C 708.539062 1142.789062 721.589844 1155.738281 729.765625 1174.246094 C 737.835938 1192.488281 753.457031 1200.457031 772.691406 1198.097656 C 784.535156 1196.632812 796.121094 1192.019531 807.492188 1187.929688 C 834.539062 1178.125 853.511719 1186.671875 862.523438 1214.140625 C 870.175781 1237.417969 870.28125 1260.90625 863.78125 1284.8125 C 856.65625 1311.027344 873.792969 1383.742188 865.199219 1396.0625 C 842.085938 1429.25 837.105469 1464.792969 847.902344 1503.117188 C 850.628906 1512.710938 848.375 1519.789062 841.246094 1527.285156 C 823.636719 1545.6875 818.183594 1568.125 820.492188 1593.449219 C 822.691406 1618.035156 822.535156 1642.886719 824.003906 1667.578125 C 824.789062 1680.84375 824.003906 1695.050781 828.613281 1707.003906 C 852.355469 1768.394531 877.777344 1829.105469 902.097656 1890.289062 C 905.082031 1897.835938 905.398438 1906.699219 905.710938 1915.035156 C 906.65625 1940.722656 905.710938 1966.464844 907.914062 1991.996094 C 911.53125 2033.832031 919.96875 2075.40625 921.175781 2117.242188 C 923.375 2191.742188 922.066406 2266.398438 921.539062 2341 C 921.175781 2397.566406 903.25 2448.945312 874.945312 2497.441406 C 865.933594 2512.960938 855.082031 2521.609375 836.792969 2522.394531 C 813.835938 2523.339844 797.796875 2536.027344 788.625 2556.472656 C 784.167969 2566.382812 780.34375 2576.554688 776.570312 2587.039062 C 773.949219 2594.273438 771.328125 2614.246094 796.644531 2614.246094 C 821.957031 2614.246094 854.976562 2615.140625 891.351562 2615.140625 C 927.726562 2615.140625 959.75 2597.679688 973.796875 2559.253906 C 974.582031 2557.15625 974.949219 2554.636719 976.363281 2553.066406 C 978.722656 2550.496094 981.449219 2547.300781 984.539062 2546.511719 C 1002.988281 2541.636719 1007.234375 2534.453125 1006.816406 2515.527344 C 1006.394531 2496.757812 1007.183594 2477.730469 1009.960938 2459.167969 C 1011.058594 2451.933594 1017.613281 2442.707031 1024.164062 2439.613281 C 1044.5 2430.074219 1047.589844 2424.671875 1045.546875 2402.078125 C 1043.503906 2378.851562 1041.40625 2355.101562 1043.609375 2331.984375 C 1047.644531 2288.886719 1054.5625 2245.949219 1060.695312 2203.117188 C 1066.460938 2162.90625 1072.695312 2122.800781 1079.300781 2079.128906 C 1116.039062 2133.601562 1159.648438 2175.855469 1209.332031 2211.925781 C 1215.152344 2216.171875 1214.996094 2219.84375 1213.003906 2226.605469 C 1208.023438 2243.800781 1202.414062 2261.417969 1201.628906 2279.085938 C 1200.058594 2313.371094 1201.734375 2347.816406 1201.683594 2382.15625 C 1201.628906 2426.246094 1190.152344 2467.714844 1172.121094 2507.664062 C 1166.460938 2520.246094 1157.707031 2529 1145.707031 2535.503906 C 1138.734375 2539.277344 1130.347656 2543.941406 1127.152344 2550.445312 C 1118.976562 2567.117188 1112.164062 2584.417969 1104.773438 2602.714844 C 1102.9375 2607.222656 1111.535156 2622.164062 1137.269531 2622.476562 C 1163 2622.792969 1227.363281 2623.210938 1253.832031 2623.160156 C 1287.53125 2623.054688 1291.097656 2619.386719 1298.539062 2587.613281 C 1301.160156 2587.980469 1303.9375 2588.085938 1306.453125 2588.871094 C 1368.296875 2607.535156 1431.558594 2610.945312 1495.503906 2606.59375 C 1533.34375 2604.078125 1571.027344 2599.933594 1608.921875 2598.203125 C 1684.761719 2594.796875 1760.707031 2592.960938 1836.597656 2589.710938 C 1863.957031 2588.558594 1891 2584.574219 1908.714844 2559.460938 C 1912.019531 2554.796875 1915.109375 2549.972656 1917.992188 2545.671875 C 1930.886719 2549.816406 1942.679688 2554.21875 1954.839844 2557.523438 C 2038.90625 2580.117188 2124.707031 2591.597656 2211.550781 2595.007812 C 2260.871094 2596.945312 2310.136719 2595.113281 2358.566406 2584.417969 C 2370.410156 2581.796875 2381.574219 2576.394531 2393.054688 2572.253906 C 2380.839844 2565.648438 2369.363281 2563.027344 2358.617188 2558.570312 Z M 1305.824219 2505.515625 C 1310.4375 2476.785156 1314.785156 2449.628906 1318.820312 2424.726562 C 1354.355469 2445.800781 1388.582031 2466.140625 1421.863281 2485.90625 C 1384.390625 2490.363281 1342.039062 2476.730469 1305.824219 2505.515625 Z M 1305.824219 2505.515625 " fill-opacity="1" fill-rule="evenodd"/></g></svg>