<svg xmlns="http://www.w3.org/2000/svg" xmlns:xlink="http://www.w3.org/1999/xlink" width="4000" zoomAndPan="magnify" viewBox="0 0 3000 3374.999861" height="4500" preserveAspectRatio="xMidYMid meet" version="1.0"><rect x="-300" width="3600" fill="#ffffff" y="-337.499986" height="4049.999833" fill-opacity="1"/><rect x="-300" width="3600" fill="#ffffff" y="-337.499986" height="4049.999833" fill-opacity="1"/><path fill="#000000" d="M 2154.847656 1641.527344 C 2143.722656 1640.523438 2132.625 1640.785156 2121.558594 1642.320312 C 2102.296875 1645.175781 2104.992188 1661.898438 2113.632812 1674.027344 C 2121.507812 1670.023438 2128.914062 1665.289062 2135.851562 1659.820312 C 2142.789062 1654.351562 2149.121094 1648.253906 2154.847656 1641.527344 Z M 2154.847656 1641.527344 " fill-opacity="1" fill-rule="nonzero"/><path fill="#000000" d="M 2383.355469 1532.308594 C 2369.800781 1526.125 2356.089844 1532.308594 2344.675781 1539.679688 C 2332.097656 1541.609375 2320.050781 1545.28125 2308.535156 1550.695312 C 2283.488281 1560.84375 2265.574219 1581.609375 2242.90625 1595.480469 C 2232.363281 1602.058594 2219.601562 1605.464844 2211.203125 1615.214844 C 2207.238281 1620.050781 2204.070312 1625.675781 2199.789062 1630.351562 C 2198.460938 1631.707031 2197.035156 1632.949219 2195.507812 1634.078125 C 2185.445312 1634.226562 2175.800781 1636.316406 2166.578125 1640.339844 L 2162.851562 1641.925781 C 2161.335938 1643.09375 2159.933594 1644.386719 2158.652344 1645.808594 C 2153.902344 1651.394531 2148.621094 1656.414062 2142.800781 1660.867188 C 2134.210938 1668.125 2124.675781 1673.777344 2114.1875 1677.832031 C 2113.238281 1678.542969 2112.363281 1679.335938 2111.335938 1680.050781 C 2101.1875 1687.105469 2088.191406 1686.707031 2077.410156 1692.175781 C 2072.21875 1695.101562 2067.464844 1698.617188 2063.144531 1702.71875 C 2067.855469 1707.6875 2071.972656 1713.105469 2075.503906 1718.976562 C 2079.03125 1724.84375 2081.886719 1731.023438 2084.070312 1737.511719 C 2088.585938 1751.464844 2094.769531 1785.070312 2080.421875 1795.609375 C 2079.628906 1796.164062 2078.597656 1795.054688 2079.074219 1794.261719 C 2090.09375 1777.9375 2081.929688 1746.707031 2073.605469 1731.332031 C 2070.804688 1725.457031 2067.316406 1720.027344 2063.140625 1715.035156 C 2058.96875 1710.039062 2054.238281 1705.644531 2048.957031 1701.847656 L 2041.03125 1699.625 C 2036.457031 1698.21875 2032.070312 1696.363281 2027.878906 1694.054688 C 2023.6875 1691.742188 2019.777344 1689.03125 2016.140625 1685.914062 C 2000.289062 1674.261719 1982.457031 1666.335938 1965.890625 1656.191406 C 1946.710938 1644.382812 1929.511719 1629.480469 1909.0625 1619.574219 C 1891.546875 1611.171875 1872.207031 1599.203125 1853.023438 1595.398438 C 1839.894531 1593.238281 1826.683594 1592.5 1813.394531 1593.179688 C 1788.109375 1598.09375 1751.414062 1597.382812 1750.542969 1628.6875 C 1751.128906 1637.144531 1752.925781 1645.335938 1755.929688 1653.257812 C 1757.359375 1659.046875 1758.152344 1665.226562 1760.132812 1670.855469 C 1764.886719 1684.726562 1771.464844 1697.566406 1777.488281 1710.882812 C 1788.664062 1735.214844 1807.765625 1752.890625 1822.191406 1774.925781 C 1832.179688 1790.300781 1849.0625 1806.628906 1851.996094 1825.253906 C 1856.894531 1827.546875 1861.464844 1830.375 1865.707031 1833.734375 C 1875.222656 1842.539062 1885.976562 1849.40625 1897.964844 1854.34375 C 1898.226562 1854.410156 1898.4375 1854.554688 1898.601562 1854.765625 C 1898.769531 1854.980469 1898.851562 1855.222656 1898.851562 1855.492188 C 1898.851562 1855.761719 1898.769531 1856.003906 1898.601562 1856.21875 C 1898.4375 1856.429688 1898.226562 1856.570312 1897.964844 1856.640625 C 1878.625 1858.226562 1867.054688 1840.074219 1851.359375 1831.992188 C 1842.789062 1827.726562 1834.574219 1822.867188 1826.710938 1817.40625 C 1823.847656 1815.289062 1820.71875 1813.691406 1817.324219 1812.605469 C 1813.933594 1811.519531 1810.457031 1811.007812 1806.894531 1811.066406 C 1806.976562 1811.753906 1806.976562 1812.441406 1806.894531 1813.128906 C 1806.871094 1813.558594 1806.734375 1813.945312 1806.484375 1814.296875 C 1806.234375 1814.648438 1805.910156 1814.902344 1805.511719 1815.0625 C 1805.113281 1815.226562 1804.703125 1815.265625 1804.277344 1815.1875 C 1803.855469 1815.109375 1803.484375 1814.925781 1803.171875 1814.632812 C 1797.777344 1809.03125 1791.753906 1804.222656 1785.097656 1800.207031 C 1773.84375 1794.660156 1756.722656 1797.195312 1752.523438 1810.671875 C 1752.523438 1810.871094 1752.484375 1811.0625 1752.40625 1811.246094 C 1752.332031 1811.429688 1752.222656 1811.59375 1752.082031 1811.734375 C 1751.941406 1811.875 1751.777344 1811.984375 1751.59375 1812.0625 C 1751.410156 1812.136719 1751.214844 1812.175781 1751.015625 1812.175781 C 1750.816406 1812.175781 1750.625 1812.136719 1750.441406 1812.0625 C 1750.253906 1811.984375 1750.09375 1811.875 1749.953125 1811.734375 C 1749.808594 1811.59375 1749.703125 1811.429688 1749.625 1811.246094 C 1749.550781 1811.0625 1749.511719 1810.871094 1749.511719 1810.671875 C 1749.40625 1809.167969 1749.550781 1807.691406 1749.945312 1806.234375 C 1750.339844 1804.78125 1750.960938 1803.433594 1751.808594 1802.191406 C 1746.921875 1801.421875 1742.007812 1801.164062 1737.066406 1801.417969 C 1732.128906 1801.671875 1727.265625 1802.429688 1722.484375 1803.695312 C 1719.855469 1804.421875 1717.355469 1805.457031 1714.980469 1806.796875 C 1712.609375 1808.136719 1710.433594 1809.746094 1708.453125 1811.621094 C 1704.175781 1816.378906 1706.15625 1820.023438 1705.757812 1825.570312 C 1705.757812 1825.75 1705.734375 1825.921875 1705.691406 1826.09375 C 1705.644531 1826.265625 1705.578125 1826.425781 1705.492188 1826.582031 C 1705.40625 1826.734375 1705.300781 1826.875 1705.175781 1827 C 1705.054688 1827.128906 1704.917969 1827.238281 1704.765625 1827.328125 C 1704.613281 1827.421875 1704.453125 1827.492188 1704.285156 1827.542969 C 1704.113281 1827.59375 1703.941406 1827.621094 1703.765625 1827.625 C 1703.589844 1827.632812 1703.414062 1827.613281 1703.242188 1827.574219 C 1703.070312 1827.535156 1702.902344 1827.476562 1702.746094 1827.394531 L 1701.875 1826.839844 C 1699.519531 1827.3125 1697.144531 1827.460938 1694.75 1827.289062 C 1692.355469 1827.113281 1690.027344 1826.621094 1687.765625 1825.808594 C 1686.148438 1825.277344 1684.617188 1824.5625 1683.171875 1823.667969 L 1682.535156 1823.667969 C 1680.871094 1823.667969 1678.574219 1823.667969 1680.714844 1826.839844 C 1681.210938 1827.742188 1681.84375 1828.535156 1682.617188 1829.21875 C 1684.640625 1831.230469 1686.859375 1833 1689.273438 1834.527344 C 1692.128906 1836.386719 1695.140625 1837.945312 1698.308594 1839.203125 C 1700.882812 1839.960938 1703.316406 1841.046875 1705.601562 1842.453125 C 1705.820312 1842.582031 1706.011719 1842.742188 1706.175781 1842.933594 C 1706.34375 1843.125 1706.472656 1843.339844 1706.566406 1843.574219 C 1706.660156 1843.808594 1706.714844 1844.050781 1706.730469 1844.304688 C 1706.746094 1844.558594 1706.71875 1844.804688 1706.652344 1845.050781 C 1706.582031 1845.292969 1706.476562 1845.519531 1706.335938 1845.730469 C 1706.191406 1845.941406 1706.019531 1846.121094 1705.816406 1846.273438 C 1705.613281 1846.425781 1705.394531 1846.539062 1705.152344 1846.621094 C 1704.914062 1846.699219 1704.664062 1846.738281 1704.410156 1846.734375 C 1701.71875 1846.554688 1699.097656 1846.015625 1696.554688 1845.113281 C 1694.011719 1844.210938 1691.636719 1842.980469 1689.433594 1841.421875 C 1687.53125 1840.3125 1685.628906 1839.125 1683.726562 1837.855469 C 1679.128906 1853.707031 1720.34375 1862.109375 1729.773438 1865.28125 C 1742.535156 1869.71875 1754.742188 1875.503906 1767.421875 1880.183594 C 1780.105469 1884.859375 1794.925781 1888.582031 1808.003906 1894.527344 C 1821.082031 1900.472656 1834.558594 1907.527344 1848.425781 1912.835938 C 1860.625 1916.730469 1872.484375 1921.460938 1884.015625 1927.023438 C 1894.558594 1932.890625 1904.941406 1943.90625 1917.226562 1945.570312 C 1936.25 1948.1875 1951.546875 1934.476562 1963.277344 1921.160156 C 1975.007812 1907.84375 1973.976562 1893.734375 1967.398438 1878.675781 C 1960.828125 1869.789062 1955.914062 1860.066406 1952.65625 1849.507812 C 1947.742188 1834.210938 1941.082031 1819.46875 1936.804688 1804.089844 C 1928.878906 1777.300781 1921.664062 1746.945312 1926.339844 1718.964844 C 1926.339844 1718.171875 1927.765625 1718.171875 1927.925781 1718.964844 C 1930.304688 1733.234375 1929.988281 1747.339844 1933.554688 1761.449219 C 1937.121094 1775.558594 1939.894531 1788.714844 1944.253906 1802.03125 C 1948.613281 1815.347656 1954.796875 1829.136719 1959.234375 1843.085938 C 1963.671875 1857.039062 1973.976562 1868.054688 1976.511719 1881.210938 C 1988.085938 1904.117188 1973.105469 1927.894531 1952.257812 1943.511719 C 1950.726562 1944.816406 1949.117188 1946.011719 1947.429688 1947.101562 C 1945.738281 1948.191406 1943.984375 1949.164062 1942.164062 1950.019531 C 1940.34375 1950.875 1938.476562 1951.605469 1936.558594 1952.214844 C 1934.640625 1952.820312 1932.691406 1953.296875 1930.710938 1953.644531 C 1928.730469 1953.992188 1926.734375 1954.203125 1924.726562 1954.285156 C 1922.714844 1954.367188 1920.710938 1954.3125 1918.707031 1954.128906 C 1916.707031 1953.941406 1914.726562 1953.621094 1912.765625 1953.171875 C 1910.804688 1952.722656 1908.882812 1952.144531 1907 1951.4375 C 1900.128906 1947.902344 1893.628906 1943.78125 1887.503906 1939.070312 C 1879.039062 1933.671875 1870.109375 1929.207031 1860.714844 1925.675781 C 1841.292969 1918.621094 1823.222656 1909.824219 1804.519531 1901.105469 C 1784.386719 1892.070312 1762.828125 1886.046875 1742.457031 1877.328125 C 1729.140625 1871.78125 1669.0625 1859.730469 1681.03125 1834.449219 C 1680.027344 1833.601562 1679.101562 1832.679688 1678.257812 1831.675781 C 1674.214844 1826.679688 1673.660156 1816.613281 1682.457031 1817.804688 C 1683.046875 1817.90625 1683.5625 1818.15625 1684.007812 1818.558594 C 1684.453125 1818.957031 1684.753906 1819.445312 1684.914062 1820.023438 C 1687.882812 1821.394531 1691.003906 1822.1875 1694.265625 1822.402344 C 1695.773438 1822.402344 1697.277344 1822.402344 1698.785156 1822.402344 C 1694.109375 1813.683594 1709.324219 1801.316406 1716.140625 1798.621094 C 1723.300781 1795.796875 1730.722656 1794.527344 1738.414062 1794.816406 C 1741.398438 1794.382812 1744.375 1794.429688 1747.34375 1794.957031 C 1750.3125 1795.484375 1753.121094 1796.46875 1755.773438 1797.910156 C 1757.308594 1796.535156 1758.960938 1795.320312 1760.734375 1794.273438 C 1762.507812 1793.226562 1764.367188 1792.359375 1766.3125 1791.679688 C 1768.261719 1791 1770.253906 1790.515625 1772.292969 1790.230469 C 1774.335938 1789.945312 1776.382812 1789.863281 1778.441406 1789.984375 C 1782.933594 1790.835938 1787.171875 1792.382812 1791.160156 1794.621094 C 1795.148438 1796.859375 1798.675781 1799.671875 1801.742188 1803.0625 C 1803.28125 1804.324219 1804.683594 1805.722656 1805.945312 1807.261719 C 1818.863281 1804.011719 1828.136719 1812.890625 1840.027344 1818.835938 L 1847.953125 1822.558594 C 1843.355469 1811.144531 1830.753906 1798.78125 1824.175781 1789.984375 C 1814.347656 1776.507812 1805.308594 1763.511719 1794.371094 1750.828125 C 1785.628906 1739.8125 1777.964844 1728.089844 1771.386719 1715.660156 C 1764.804688 1703.230469 1759.414062 1690.304688 1755.21875 1676.878906 C 1752.761719 1669.746094 1751.96875 1662.136719 1749.589844 1655.003906 C 1747.105469 1649.453125 1745.28125 1643.695312 1744.121094 1637.722656 C 1743.65625 1634.964844 1743.46875 1632.1875 1743.558594 1629.390625 C 1743.652344 1626.589844 1744.019531 1623.832031 1744.667969 1621.109375 C 1745.3125 1618.382812 1746.226562 1615.753906 1747.402344 1613.214844 C 1748.578125 1610.671875 1749.992188 1608.277344 1751.652344 1606.019531 C 1766.949219 1589.613281 1789.300781 1590.167969 1810.304688 1588.425781 C 1800.84375 1576.96875 1790.570312 1566.292969 1779.492188 1556.394531 C 1768.410156 1546.496094 1756.648438 1537.488281 1744.199219 1529.375 C 1716.539062 1511.226562 1693.710938 1487.683594 1664.542969 1471.832031 C 1650.390625 1463.449219 1635.609375 1456.371094 1620.207031 1450.589844 C 1604.804688 1444.8125 1589.015625 1440.429688 1572.839844 1437.433594 C 1540.34375 1432.519531 1507.53125 1437.433594 1474.875 1437.433594 C 1462.234375 1436.953125 1449.730469 1435.382812 1437.367188 1432.722656 C 1425 1430.058594 1412.960938 1426.34375 1401.242188 1421.582031 C 1390.9375 1428.636719 1380 1434.898438 1369.539062 1442.03125 C 1356.609375 1451.1875 1342.960938 1459.097656 1328.589844 1465.757812 C 1314.214844 1472.417969 1299.359375 1477.71875 1284.015625 1481.660156 C 1283.726562 1481.664062 1283.464844 1481.582031 1283.230469 1481.40625 C 1283 1481.230469 1282.84375 1481 1282.769531 1480.71875 C 1282.695312 1480.4375 1282.714844 1480.164062 1282.828125 1479.894531 C 1282.941406 1479.628906 1283.125 1479.425781 1283.382812 1479.285156 C 1314.292969 1467.871094 1341.480469 1449.796875 1369.457031 1432.914062 C 1381.433594 1426.71875 1392.898438 1419.691406 1403.855469 1411.832031 C 1407.21875 1407.609375 1410.285156 1403.175781 1413.046875 1398.535156 C 1415.8125 1393.898438 1418.253906 1389.09375 1420.367188 1384.125 C 1422.484375 1379.15625 1424.257812 1374.070312 1425.6875 1368.863281 C 1427.113281 1363.652344 1428.1875 1358.375 1428.902344 1353.023438 C 1431.203125 1320.289062 1410.199219 1291.277344 1381.347656 1276.933594 C 1344.886719 1258.542969 1302.085938 1264.011719 1265.074219 1276.933594 C 1228.058594 1289.851562 1193.738281 1308.636719 1157.4375 1320.921875 C 1142.648438 1325.753906 1127.554688 1329.292969 1112.15625 1331.542969 C 1096.761719 1333.789062 1081.289062 1334.714844 1065.734375 1334.316406 C 1053.878906 1326.425781 1042.597656 1317.785156 1031.890625 1308.398438 C 1002.960938 1281.449219 977.039062 1250.222656 950.171875 1221.210938 C 930.039062 1198.941406 896.117188 1170.722656 864.015625 1172.703125 C 863.65625 1175.0625 863.644531 1177.425781 863.984375 1179.785156 C 864.320312 1182.148438 864.992188 1184.410156 865.996094 1186.574219 C 865.21875 1187.144531 864.5 1187.777344 863.835938 1188.476562 C 863.175781 1189.179688 862.582031 1189.933594 862.058594 1190.738281 C 861.53125 1191.546875 861.085938 1192.398438 860.714844 1193.285156 C 860.34375 1194.175781 860.058594 1195.09375 859.855469 1196.035156 C 859.652344 1196.976562 859.539062 1197.929688 859.507812 1198.890625 C 859.480469 1199.855469 859.535156 1200.8125 859.683594 1201.765625 C 859.828125 1202.71875 860.058594 1203.648438 860.375 1204.558594 C 860.6875 1205.46875 861.085938 1206.34375 861.558594 1207.183594 C 861.175781 1208.90625 860.921875 1210.648438 860.804688 1212.40625 C 860.683594 1214.167969 860.695312 1215.929688 860.839844 1217.6875 C 860.984375 1219.445312 861.261719 1221.183594 861.671875 1222.898438 C 862.078125 1224.617188 862.613281 1226.292969 863.273438 1227.929688 C 863.9375 1229.566406 864.71875 1231.140625 865.617188 1232.660156 C 866.515625 1234.179688 867.527344 1235.621094 868.644531 1236.984375 C 869.761719 1238.351562 870.976562 1239.625 872.285156 1240.808594 C 873.59375 1241.988281 874.988281 1243.066406 876.460938 1244.039062 C 874.636719 1253.867188 885.574219 1266.707031 892.3125 1271.621094 C 899.050781 1276.535156 904.4375 1278.597656 909.988281 1282.957031 C 913.984375 1287.289062 918.503906 1290.988281 923.539062 1294.050781 C 926.175781 1295.359375 928.953125 1296.21875 931.867188 1296.625 C 934.78125 1297.03125 937.6875 1296.964844 940.582031 1296.429688 C 960.714844 1312.835938 977.4375 1335.425781 994.953125 1353.894531 C 1012.46875 1372.359375 1030.382812 1396.457031 1054.875 1406.679688 C 1059.691406 1408.710938 1064.683594 1410.113281 1069.855469 1410.882812 C 1084.226562 1409.234375 1098.414062 1406.59375 1112.417969 1402.957031 C 1126.3125 1399.90625 1139.972656 1396.023438 1153.394531 1391.304688 C 1161.320312 1388.214844 1170.355469 1381.871094 1179.234375 1382.585938 C 1180.5 1382.585938 1181.375 1384.726562 1179.945312 1385.28125 C 1168.058594 1390.351562 1157.277344 1397.488281 1144.992188 1402.003906 C 1131.730469 1406.679688 1118.230469 1410.511719 1104.492188 1413.496094 C 1090.910156 1416.925781 1077.117188 1418.855469 1063.117188 1419.285156 C 1056.808594 1422.199219 1050.996094 1425.898438 1045.679688 1430.378906 C 1050.59375 1432.835938 1055.191406 1430.378906 1053.605469 1436.007812 C 1052.894531 1438.148438 1048.851562 1440.761719 1047.425781 1442.585938 C 1048.796875 1442.507812 1050.171875 1442.507812 1051.546875 1442.585938 C 1052.574219 1447.738281 1045.441406 1448.6875 1044.808594 1453.601562 C 1046.550781 1453.601562 1048.929688 1454.078125 1050.671875 1453.601562 C 1050.199219 1457.328125 1046.789062 1460.578125 1044.808594 1463.667969 C 1045.996094 1463.667969 1047.742188 1464.222656 1048.929688 1463.667969 C 1049.960938 1469.851562 1041.003906 1470.167969 1040.527344 1475.480469 L 1041.953125 1475.480469 C 1041.953125 1478.296875 1041.265625 1480.941406 1039.894531 1483.40625 C 1028.242188 1483.40625 1015.164062 1484.59375 1008.191406 1484.515625 C 987.34375 1484.515625 966.023438 1481.582031 945.734375 1482.929688 C 945.734375 1484.671875 945.179688 1486.972656 945.734375 1488.792969 C 932.734375 1488.792969 919.417969 1486.65625 906.101562 1486.179688 C 906.867188 1486.988281 907.433594 1487.917969 907.808594 1488.964844 C 908.179688 1490.015625 908.324219 1491.09375 908.242188 1492.203125 C 892.5625 1493.019531 877.003906 1494.839844 861.558594 1497.671875 C 847.953125 1499.957031 834.925781 1504.078125 822.484375 1510.035156 C 809.40625 1516.140625 794.902344 1521.449219 782.296875 1528.582031 C 773.34375 1533.578125 764.859375 1539.601562 755.824219 1544.433594 C 749.328125 1548.082031 735.929688 1550.0625 731.253906 1554.898438 C 733.316406 1554.898438 735.140625 1555.929688 737.199219 1556.085938 C 724.121094 1567.578125 702.324219 1571.9375 685.285156 1573.445312 C 686.308594 1575.933594 687.550781 1578.3125 689.007812 1580.578125 C 684.964844 1581.34375 681.023438 1582.476562 677.1875 1583.976562 C 673.355469 1585.476562 669.691406 1587.316406 666.199219 1589.5 C 662.707031 1591.683594 659.449219 1594.171875 656.421875 1596.960938 C 653.394531 1599.75 650.648438 1602.796875 648.191406 1606.101562 C 652.074219 1606.101562 655.5625 1604.277344 659.761719 1604.515625 C 652.085938 1609.210938 645.375 1615.023438 639.628906 1621.953125 C 641.742188 1621.835938 643.777344 1622.179688 645.734375 1622.980469 C 637.015625 1629.242188 627.898438 1635.109375 619.578125 1642.402344 C 613.710938 1647.632812 606.023438 1660.628906 600.394531 1662.929688 C 612.683594 1662.929688 631.148438 1662.929688 641.136719 1655.003906 C 640.019531 1657.558594 638.515625 1659.855469 636.617188 1661.898438 C 648.269531 1661.898438 660.394531 1653.101562 670.621094 1649.851562 C 670.570312 1651 670.28125 1652.089844 669.753906 1653.113281 C 669.226562 1654.136719 668.511719 1655.003906 667.609375 1655.714844 C 682.191406 1649.613281 696.222656 1645.652344 708.824219 1635.265625 C 709.539062 1638.992188 706.289062 1641.925781 704.070312 1644.621094 C 711.296875 1640.398438 718.851562 1636.886719 726.738281 1634.078125 C 734.664062 1629.71875 739.417969 1620.921875 746.949219 1616.007812 C 746.949219 1618.703125 746.949219 1621.554688 746.949219 1623.933594 C 753.058594 1619.761719 759.558594 1616.328125 766.445312 1613.628906 C 773.097656 1609.742188 779.464844 1605.4375 785.546875 1600.710938 C 792.5625 1595.363281 799.984375 1590.652344 807.808594 1586.578125 C 815.632812 1582.507812 823.746094 1579.132812 832.152344 1576.457031 C 842.101562 1572.910156 852.351562 1570.925781 862.90625 1570.511719 C 859.636719 1574.804688 855.9375 1578.6875 851.808594 1582.164062 C 856.410156 1579.503906 861.140625 1577.101562 865.996094 1574.949219 C 872.339844 1572.96875 879.3125 1572.96875 885.417969 1571.382812 C 885.417969 1574.871094 882.402344 1577.25 880.421875 1579.785156 C 883.933594 1578.1875 887.589844 1577.039062 891.382812 1576.34375 C 895.179688 1575.644531 899.003906 1575.417969 902.851562 1575.664062 C 901.558594 1577.925781 899.945312 1579.933594 898.019531 1581.6875 C 905.488281 1579.183594 913.132812 1577.429688 920.949219 1576.429688 C 928.765625 1575.429688 936.605469 1575.199219 944.464844 1575.742188 C 943.515625 1578.753906 938.996094 1581.210938 936.539062 1583.667969 C 946.128906 1582.71875 956.035156 1581.449219 965.546875 1580.339844 C 965.546875 1583.511719 961.507812 1585.96875 959.683594 1588.742188 C 967.128906 1585.105469 974.871094 1582.277344 982.90625 1580.261719 C 983.214844 1582.355469 983.085938 1584.425781 982.519531 1586.46875 C 981.953125 1588.511719 981 1590.351562 979.65625 1591.992188 C 983.71875 1589.789062 987.976562 1588.085938 992.4375 1586.882812 C 996.894531 1585.675781 1001.433594 1585.003906 1006.050781 1584.859375 C 1005.574219 1587.789062 1003.195312 1590.246094 1002.800781 1593.257812 C 1011.996094 1594.164062 1020.925781 1596.222656 1029.589844 1599.441406 C 1031.492188 1600.15625 1033.554688 1600.949219 1035.773438 1601.660156 C 1032.597656 1603.53125 1029.535156 1605.566406 1026.578125 1607.765625 C 1020.453125 1611.417969 1014.535156 1615.378906 1008.824219 1619.652344 C 1013.5 1623.695312 1018.574219 1622.824219 1013.578125 1628.449219 C 1010.332031 1632.097656 1002.722656 1632.96875 1001.929688 1638.359375 C 1019.285156 1641.132812 1001.058594 1646.996094 996.0625 1655.082031 C 999.390625 1655.082031 1002.800781 1655.082031 1006.050781 1655.082031 C 1002.105469 1662.582031 997.324219 1669.503906 991.703125 1675.847656 C 995.101562 1674.058594 998.722656 1673.214844 1002.5625 1673.3125 C 1000.15625 1681.828125 996.195312 1689.542969 990.671875 1696.457031 C 993.691406 1695.160156 996.78125 1694.078125 999.945312 1693.207031 C 999.945312 1703.75 987.820312 1714.605469 981.796875 1722.613281 C 985.839844 1726.972656 994.953125 1721.742188 992.972656 1729.429688 C 992.019531 1733.234375 985.046875 1738.304688 982.113281 1740.683594 C 985.234375 1740.574219 988.300781 1740.941406 991.308594 1741.792969 C 992.101562 1746.785156 985.996094 1748.292969 984.570312 1752.808594 C 985.996094 1752.808594 988.058594 1753.363281 989.5625 1752.808594 C 988.675781 1756.574219 987.378906 1760.195312 985.679688 1763.667969 C 982.128906 1766.5 978.296875 1768.882812 974.1875 1770.808594 C 970.074219 1772.738281 965.796875 1774.164062 961.347656 1775.082031 C 948.902344 1777.855469 936.855469 1781.660156 924.09375 1783.007812 C 902.035156 1786.761719 879.816406 1788.691406 857.4375 1788.792969 C 837.226562 1788.238281 811.070312 1779.757812 791.730469 1787.84375 C 775.480469 1794.660156 765.097656 1816.535156 757.332031 1831.277344 L 752.972656 1839.203125 C 740.84375 1846.417969 734.425781 1862.507812 726.65625 1873.363281 C 717.226562 1886.679688 707.316406 1899.679688 697.488281 1912.996094 C 685.351562 1927.878906 674.652344 1943.730469 665.390625 1960.550781 C 657.554688 1975.015625 647.992188 1988.222656 636.699219 2000.179688 C 629.882812 2008.109375 625.363281 2012.386719 625.917969 2023.324219 C 625.84375 2025.832031 626.089844 2028.308594 626.652344 2030.753906 C 627.214844 2033.195312 628.082031 2035.53125 629.246094 2037.75 C 627.773438 2039.878906 626.492188 2042.117188 625.402344 2044.460938 C 624.3125 2046.808594 623.429688 2049.230469 622.753906 2051.730469 C 622.078125 2054.226562 621.621094 2056.765625 621.378906 2059.34375 C 621.140625 2061.917969 621.121094 2064.496094 621.320312 2067.078125 C 621.351562 2068.300781 621.476562 2069.511719 621.703125 2070.714844 C 621.929688 2071.917969 622.25 2073.09375 622.664062 2074.246094 C 623.082031 2075.398438 623.589844 2076.507812 624.183594 2077.574219 C 624.78125 2078.644531 625.457031 2079.660156 626.21875 2080.617188 C 626.976562 2081.578125 627.808594 2082.46875 628.714844 2083.292969 C 629.621094 2084.117188 630.585938 2084.863281 631.609375 2085.53125 C 632.636719 2086.199219 633.707031 2086.78125 634.828125 2087.273438 C 635.945312 2087.769531 637.097656 2088.167969 638.28125 2088.476562 C 637.808594 2094.582031 637.648438 2102.347656 641.613281 2103.21875 C 644.070312 2103.855469 648.191406 2101.160156 651.914062 2098.066406 C 651.914062 2105.992188 653.660156 2114.949219 663.011719 2109.796875 C 670.511719 2104.277344 677.039062 2097.777344 682.589844 2090.300781 C 697.332031 2073.101562 710.726562 2060.5 717.9375 2038.226562 C 724.753906 2017.300781 731.175781 1995.980469 739.261719 1975.53125 C 743.53125 1965.429688 748.3125 1955.574219 753.605469 1945.96875 C 759.292969 1936.386719 766.136719 1927.722656 774.132812 1919.96875 C 787.441406 1903.191406 801.972656 1887.550781 817.726562 1873.046875 C 836.238281 1868.546875 854.996094 1866.9375 874.003906 1868.214844 C 905.707031 1871.304688 936.222656 1881.449219 967.371094 1887.394531 C 1000.421875 1893.8125 1036.566406 1902.296875 1070.410156 1899.441406 C 1108.136719 1896.269531 1141.742188 1884.144531 1175.984375 1869.957031 C 1185.089844 1866.300781 1193.816406 1861.890625 1202.160156 1856.726562 C 1210.503906 1851.5625 1218.34375 1845.722656 1225.679688 1839.203125 C 1230.484375 1834.851562 1234.835938 1830.082031 1238.726562 1824.894531 C 1242.621094 1819.707031 1245.984375 1814.203125 1248.824219 1808.371094 C 1238.402344 1801.566406 1228.917969 1793.640625 1220.371094 1784.59375 C 1209.761719 1773.800781 1200.566406 1761.910156 1192.789062 1748.925781 C 1186.445312 1737.671875 1176.140625 1729.746094 1169.800781 1718.726562 C 1169.167969 1717.617188 1170.832031 1716.269531 1171.625 1717.300781 C 1178.757812 1726.257812 1188.109375 1733.152344 1194.453125 1742.902344 C 1202.558594 1754.949219 1211.832031 1766.019531 1222.273438 1776.113281 C 1232.023438 1786.152344 1242.855469 1794.84375 1254.769531 1802.1875 C 1260.527344 1805.464844 1266.445312 1808.425781 1272.523438 1811.066406 C 1285.441406 1814 1298.757812 1815.664062 1308.984375 1818.4375 C 1340.6875 1827.15625 1372.867188 1835.320312 1404.09375 1845.625 C 1434.339844 1855.765625 1463.957031 1867.496094 1492.945312 1880.816406 C 1506.261719 1886.761719 1540.5 1900.550781 1544.703125 1901.582031 C 1568.875 1908.238281 1592.972656 1912.996094 1617.382812 1917.433594 C 1659.472656 1925.359375 1700.84375 1910.777344 1742.695312 1921 C 1744.515625 1921.476562 1743.960938 1924.882812 1742.296875 1925.042969 C 1731.914062 1926.074219 1721.214844 1925.042969 1710.59375 1925.042969 C 1699.972656 1925.042969 1688.71875 1928.847656 1677.621094 1930.195312 C 1655.246094 1932.308594 1633 1931.355469 1610.882812 1927.339844 C 1602.957031 1926.230469 1595.824219 1924.804688 1588.375 1923.300781 C 1587.136719 1925.296875 1586.265625 1927.449219 1585.761719 1929.746094 C 1585.257812 1932.042969 1585.152344 1934.359375 1585.441406 1936.695312 C 1586.949219 1952.546875 1598.441406 1966.101562 1606.84375 1978.703125 C 1626.738281 2008.664062 1649.324219 2037.355469 1671.597656 2065.886719 C 1679.105469 2075.082031 1685.898438 2084.777344 1691.96875 2094.976562 C 1699.292969 2097.242188 1706.480469 2099.886719 1713.527344 2102.902344 C 1721.929688 2105.359375 1729.773438 2108.925781 1738.019531 2111.542969 C 1742.515625 2112.515625 1746.636719 2114.335938 1750.382812 2117.011719 C 1751.097656 2117.566406 1750.382812 2118.515625 1749.433594 2118.199219 C 1736.511719 2112.175781 1720.660156 2113.523438 1707.820312 2108.132812 C 1700.96875 2105.710938 1693.941406 2104.019531 1686.738281 2103.0625 C 1684.582031 2104.316406 1682.546875 2105.746094 1680.632812 2107.339844 C 1669.457031 2099.96875 1654.476562 2100.761719 1642.035156 2098.78125 C 1628.085938 2096.5625 1619.601562 2082.929688 1604.070312 2087.289062 C 1602.601562 2087.765625 1601.203125 2088.390625 1599.867188 2089.164062 C 1598.53125 2089.933594 1597.292969 2090.835938 1596.144531 2091.863281 C 1595 2092.894531 1593.972656 2094.035156 1593.0625 2095.277344 C 1592.152344 2096.523438 1591.382812 2097.851562 1590.753906 2099.257812 C 1585.125 2098.226562 1571.570312 2093.152344 1567.53125 2098.542969 C 1567.117188 2099.261719 1566.828125 2100.027344 1566.65625 2100.839844 C 1566.484375 2101.652344 1566.441406 2102.46875 1566.527344 2103.292969 C 1566.613281 2104.117188 1566.820312 2104.910156 1567.15625 2105.667969 C 1567.488281 2106.429688 1567.929688 2107.117188 1568.480469 2107.738281 C 1566.480469 2110.210938 1564.871094 2112.917969 1563.65625 2115.859375 C 1562.445312 2118.800781 1561.671875 2121.851562 1561.347656 2125.015625 C 1552.707031 2126.285156 1538.042969 2130.007812 1536.460938 2136.113281 C 1534.875 2142.214844 1544.941406 2145.863281 1554.292969 2147.445312 C 1546.367188 2151.015625 1535.746094 2156.5625 1541.691406 2163.300781 C 1547.636719 2170.035156 1567.847656 2170.511719 1576.960938 2173.128906 C 1587.980469 2176.296875 1597.886719 2182.003906 1608.664062 2185.886719 C 1623.265625 2191.003906 1638.300781 2193.804688 1653.765625 2194.289062 C 1687.371094 2196.113281 1720.421875 2201.027344 1753.871094 2203.246094 C 1780.34375 2205.070312 1814.820312 2199.601562 1829.246094 2174.316406 C 1839.945312 2155.609375 1830.515625 2136.507812 1817.832031 2119.546875 C 1815.136719 2113.523438 1811.808594 2107.578125 1809.351562 2102.585938 C 1801.441406 2087.117188 1792.617188 2072.191406 1782.878906 2057.804688 C 1777.441406 2050.855469 1772.660156 2043.484375 1768.535156 2035.691406 C 1765.992188 2030.550781 1763.800781 2025.265625 1761.953125 2019.839844 C 1798.730469 2021.105469 1835.351562 2026.890625 1872.285156 2025.226562 C 1913.023438 2023.246094 1957.171875 2020.15625 1989.113281 1992.808594 C 1992.59375 1989.472656 1995.667969 1985.796875 1998.339844 1981.789062 C 2001.015625 1977.777344 2003.222656 1973.527344 2004.964844 1969.03125 C 2006.394531 1966.101562 2007.820312 1963.246094 2009.089844 1960.472656 C 1994.035156 1955.082031 1978.527344 1951.960938 1962.5625 1951.121094 C 1962.222656 1950.964844 1962.054688 1950.699219 1962.054688 1950.328125 C 1962.054688 1949.953125 1962.222656 1949.691406 1962.5625 1949.535156 C 1964.511719 1948.546875 1966.574219 1947.945312 1968.746094 1947.726562 C 1970.917969 1947.507812 1973.058594 1947.6875 1975.164062 1948.265625 C 1984.835938 1949.851562 1994.742188 1949.535156 2004.492188 1951.277344 C 2012.417969 1952.785156 2020.34375 1955.003906 2028.269531 1956.589844 C 2043.984375 1957.222656 2059.648438 1956.582031 2075.257812 1954.667969 C 2090.871094 1952.753906 2106.226562 1949.589844 2121.320312 1945.175781 C 2137.886719 1939.546875 2153.898438 1932.175781 2170.304688 1926.3125 C 2185.441406 1920.84375 2203.75 1922.269531 2217.859375 1914.738281 C 2224.503906 1911.214844 2230.820312 1907.171875 2236.804688 1902.613281 C 2238.785156 1898.015625 2243.300781 1896.507812 2246.550781 1892.703125 C 2247.792969 1891.058594 2249.171875 1889.535156 2250.6875 1888.136719 C 2252.203125 1886.734375 2253.828125 1885.480469 2255.566406 1884.371094 C 2257.304688 1883.261719 2259.128906 1882.316406 2261.035156 1881.53125 C 2262.945312 1880.746094 2264.90625 1880.140625 2266.921875 1879.707031 C 2278.257812 1877.882812 2290.699219 1878.675781 2301.636719 1875.824219 C 2307.125 1873.804688 2312.410156 1871.347656 2317.488281 1868.449219 C 2317.699219 1868.164062 2317.96875 1867.957031 2318.296875 1867.828125 C 2318.628906 1867.699219 2318.964844 1867.667969 2319.3125 1867.738281 L 2320.898438 1867.183594 C 2321.140625 1867.121094 2321.378906 1867.132812 2321.617188 1867.214844 C 2321.851562 1867.296875 2322.046875 1867.433594 2322.203125 1867.632812 C 2322.355469 1867.828125 2322.445312 1868.050781 2322.464844 1868.300781 C 2322.488281 1868.550781 2322.441406 1868.785156 2322.324219 1869.007812 C 2325.890625 1871.226562 2327.160156 1875.03125 2329.695312 1879.308594 C 2334.617188 1887.101562 2339.054688 1895.160156 2343.011719 1903.484375 C 2346.421875 1912.484375 2349.0625 1921.707031 2350.9375 1931.144531 C 2353.320312 1937.785156 2354.351562 1944.628906 2354.027344 1951.675781 C 2354.027344 1952.230469 2353 1952.546875 2352.917969 1951.675781 C 2351.195312 1943.164062 2348.550781 1934.945312 2344.992188 1927.023438 C 2341.859375 1918.414062 2338.1875 1910.039062 2333.976562 1901.898438 C 2327.648438 1893.050781 2322.074219 1883.75 2317.253906 1874 C 2315.605469 1875.742188 2313.800781 1877.300781 2311.835938 1878.679688 C 2309.871094 1880.054688 2307.789062 1881.21875 2305.589844 1882.171875 C 2303.390625 1883.128906 2301.117188 1883.851562 2298.769531 1884.34375 C 2296.421875 1884.835938 2294.050781 1885.085938 2291.652344 1885.09375 C 2280.160156 1886.046875 2265.972656 1884.699219 2255.984375 1891.59375 C 2254.160156 1892.863281 2251.863281 1894.210938 2249.484375 1895.636719 C 2254.539062 1897.441406 2259.214844 1899.949219 2263.511719 1903.164062 C 2267.808594 1906.378906 2271.535156 1910.160156 2274.6875 1914.5 C 2282.140625 1925.28125 2284.675781 1941.6875 2297.59375 1947.078125 C 2299.183594 1947.734375 2300.824219 1948.238281 2302.507812 1948.582031 C 2321.847656 1968.320312 2367.820312 2015.796875 2379.390625 1987.339844 C 2386.445312 1969.902344 2383.355469 1946.125 2385.179688 1927.578125 C 2386.054688 1917.859375 2385.867188 1908.164062 2384.625 1898.484375 C 2383.382812 1888.804688 2381.109375 1879.375 2377.808594 1870.195312 C 2372.511719 1852.054688 2364.585938 1835.144531 2354.027344 1819.46875 C 2355.039062 1818.085938 2355.804688 1816.582031 2356.328125 1814.949219 C 2357.957031 1808.113281 2359.066406 1801.191406 2359.65625 1794.183594 C 2361.496094 1782.179688 2364.636719 1770.53125 2369.089844 1759.230469 C 2371.707031 1754.308594 2373.832031 1749.179688 2375.457031 1743.847656 C 2377.085938 1738.511719 2378.183594 1733.074219 2378.757812 1727.527344 C 2379.003906 1721.492188 2378.519531 1715.519531 2377.300781 1709.605469 C 2376.078125 1703.691406 2374.160156 1698.015625 2371.546875 1692.574219 C 2368.769531 1686.546875 2364.015625 1680.523438 2360.6875 1674.261719 C 2360.015625 1675.90625 2359.515625 1677.59375 2359.179688 1679.335938 C 2357.832031 1686.46875 2356.960938 1698.992188 2350.777344 1703.828125 C 2350.589844 1703.957031 2350.402344 1703.949219 2350.222656 1703.808594 C 2350.039062 1703.667969 2349.988281 1703.488281 2350.066406 1703.273438 C 2354.664062 1693.207031 2352.285156 1680.683594 2354.347656 1670.140625 C 2355.21875 1665.464844 2361.082031 1660.3125 2363.382812 1656.429688 C 2364.410156 1654.605469 2365.441406 1652.863281 2366.550781 1651.121094 C 2372.257812 1640.023438 2375.429688 1628.054688 2380.34375 1616.246094 C 2385.113281 1605.695312 2389.210938 1594.890625 2392.628906 1583.828125 C 2394.484375 1581.363281 2395.957031 1578.6875 2397.046875 1575.804688 C 2398.140625 1572.921875 2398.808594 1569.941406 2399.046875 1566.867188 C 2400.078125 1553.867188 2396.511719 1538.253906 2383.355469 1532.308594 Z M 2383.355469 1532.308594 " fill-opacity="1" fill-rule="nonzero"/></svg>